<svg xmlns="http://www.w3.org/2000/svg" xmlns:xlink="http://www.w3.org/1999/xlink" width="350" zoomAndPan="magnify" viewBox="0 0 262.5 149.999998" height="200" preserveAspectRatio="xMidYMid meet" version="1.0"><defs><clipPath id="93c1fd26bc"><path d="M 42 68 L 61 68 L 61 84 L 42 84 Z M 42 68 " clip-rule="nonzero"/></clipPath><clipPath id="b9a325ef18"><path d="M 60.746094 68.746094 L 60.746094 71.714844 L 46.339844 71.714844 L 46.339844 74.667969 L 57.136719 74.667969 C 57.792969 74.667969 58.398438 74.800781 58.941406 75.070312 C 59.496094 75.335938 59.933594 75.6875 60.253906 76.136719 C 60.582031 76.582031 60.746094 77.082031 60.746094 77.617188 L 60.746094 80.585938 C 60.746094 81.128906 60.582031 81.621094 60.253906 82.070312 C 59.933594 82.515625 59.496094 82.878906 58.941406 83.144531 C 58.398438 83.410156 57.792969 83.539062 57.136719 83.539062 L 42.746094 83.539062 L 42.746094 80.585938 L 57.136719 80.585938 L 57.136719 77.617188 L 46.339844 77.617188 C 45.679688 77.617188 45.078125 77.488281 44.53125 77.226562 C 43.988281 76.957031 43.550781 76.597656 43.222656 76.148438 C 42.902344 75.703125 42.746094 75.207031 42.746094 74.667969 L 42.746094 71.714844 C 42.746094 71.164062 42.902344 70.664062 43.222656 70.214844 C 43.550781 69.769531 43.988281 69.414062 44.53125 69.152344 C 45.078125 68.882812 45.679688 68.746094 46.339844 68.746094 Z M 60.746094 68.746094 " clip-rule="nonzero"/></clipPath><clipPath id="f9b785de3f"><path d="M 62.535156 68.746094 L 80.535156 68.746094 L 80.535156 71.714844 L 62.535156 71.714844 Z M 69.738281 71.714844 L 73.332031 71.714844 L 73.332031 83.539062 L 69.738281 83.539062 Z M 69.738281 71.714844 " clip-rule="nonzero"/></clipPath><clipPath id="c2bf7b34da"><path d="M 82 68 L 101 68 L 101 84 L 82 84 Z M 82 68 " clip-rule="nonzero"/></clipPath><clipPath id="e453d0d42a"><path d="M 85.917969 68.746094 L 96.714844 68.746094 C 97.371094 68.746094 97.972656 68.882812 98.519531 69.152344 C 99.074219 69.414062 99.511719 69.769531 99.832031 70.214844 C 100.160156 70.664062 100.324219 71.164062 100.324219 71.714844 L 100.324219 83.539062 L 96.714844 83.539062 L 96.714844 77.617188 L 85.917969 77.617188 L 85.917969 83.539062 L 82.324219 83.539062 L 82.324219 71.714844 C 82.324219 71.164062 82.480469 70.664062 82.800781 70.214844 C 83.128906 69.769531 83.566406 69.414062 84.109375 69.152344 C 84.65625 68.882812 85.257812 68.746094 85.917969 68.746094 Z M 85.917969 71.714844 L 85.917969 74.667969 L 96.714844 74.667969 L 96.714844 71.714844 Z M 85.917969 71.714844 " clip-rule="nonzero"/></clipPath><clipPath id="504a1abdc4"><path d="M 102 68 L 121 68 L 121 84 L 102 84 Z M 102 68 " clip-rule="nonzero"/></clipPath><clipPath id="ee4740923b"><path d="M 120.113281 71.714844 L 120.113281 74.667969 C 120.113281 75.207031 119.949219 75.703125 119.621094 76.148438 C 119.300781 76.597656 118.863281 76.957031 118.308594 77.226562 C 117.761719 77.488281 117.160156 77.617188 116.503906 77.617188 L 112.910156 77.617188 L 116.503906 80.585938 L 120.113281 80.585938 L 120.113281 83.539062 L 115.789062 83.539062 C 115.277344 83.539062 114.839844 83.390625 114.476562 83.089844 L 107.816406 77.617188 L 105.707031 77.617188 L 105.707031 83.539062 L 102.113281 83.539062 L 102.113281 68.746094 L 116.503906 68.746094 C 117.160156 68.746094 117.761719 68.882812 118.308594 69.152344 C 118.863281 69.414062 119.300781 69.769531 119.621094 70.214844 C 119.949219 70.664062 120.113281 71.164062 120.113281 71.714844 Z M 116.503906 71.714844 L 105.707031 71.714844 L 105.707031 74.667969 L 116.503906 74.667969 Z M 116.503906 71.714844 " clip-rule="nonzero"/></clipPath><clipPath id="56c9adb08f"><path d="M 121 68 L 140 68 L 140 84 L 121 84 Z M 121 68 " clip-rule="nonzero"/></clipPath><clipPath id="bb0728edc4"><path d="M 139.902344 68.746094 L 139.902344 71.714844 L 125.496094 71.714844 L 125.496094 74.667969 L 136.292969 74.667969 C 136.949219 74.667969 137.554688 74.800781 138.097656 75.070312 C 138.652344 75.335938 139.089844 75.6875 139.410156 76.136719 C 139.738281 76.582031 139.902344 77.082031 139.902344 77.617188 L 139.902344 80.585938 C 139.902344 81.128906 139.738281 81.621094 139.410156 82.070312 C 139.089844 82.515625 138.652344 82.878906 138.097656 83.144531 C 137.554688 83.410156 136.949219 83.539062 136.292969 83.539062 L 121.902344 83.539062 L 121.902344 80.585938 L 136.292969 80.585938 L 136.292969 77.617188 L 125.496094 77.617188 C 124.835938 77.617188 124.234375 77.488281 123.6875 77.226562 C 123.144531 76.957031 122.707031 76.597656 122.378906 76.148438 C 122.058594 75.703125 121.902344 75.207031 121.902344 74.667969 L 121.902344 71.714844 C 121.902344 71.164062 122.058594 70.664062 122.378906 70.214844 C 122.707031 69.769531 123.144531 69.414062 123.6875 69.152344 C 124.234375 68.882812 124.835938 68.746094 125.496094 68.746094 Z M 139.902344 68.746094 " clip-rule="nonzero"/></clipPath><clipPath id="62ba3a5c34"><path d="M 156.082031 68.746094 L 159.691406 68.746094 L 159.691406 74.667969 L 156.082031 74.667969 Z M 141.691406 68.746094 L 145.285156 68.746094 L 145.285156 74.667969 L 141.691406 74.667969 Z M 141.691406 74.667969 L 159.691406 74.667969 L 159.691406 77.617188 L 141.691406 77.617188 Z M 141.691406 77.617188 L 145.285156 77.617188 L 145.285156 83.539062 L 141.691406 83.539062 Z M 156.082031 77.617188 L 159.691406 77.617188 L 159.691406 83.539062 L 156.082031 83.539062 Z M 156.082031 77.617188 " clip-rule="nonzero"/></clipPath><clipPath id="2617fa0236"><path d="M 161 68 L 180 68 L 180 84 L 161 84 Z M 161 68 " clip-rule="nonzero"/></clipPath><clipPath id="50981a2202"><path d="M 165.070312 68.746094 L 175.871094 68.746094 C 176.527344 68.746094 177.128906 68.882812 177.675781 69.152344 C 178.230469 69.414062 178.667969 69.769531 178.988281 70.214844 C 179.316406 70.664062 179.480469 71.164062 179.480469 71.714844 L 179.480469 83.539062 L 175.871094 83.539062 L 175.871094 77.617188 L 165.070312 77.617188 L 165.070312 83.539062 L 161.476562 83.539062 L 161.476562 71.714844 C 161.476562 71.164062 161.636719 70.664062 161.957031 70.214844 C 162.28125 69.769531 162.722656 69.414062 163.265625 69.152344 C 163.8125 68.882812 164.414062 68.746094 165.070312 68.746094 Z M 165.070312 71.714844 L 165.070312 74.667969 L 175.871094 74.667969 L 175.871094 71.714844 Z M 165.070312 71.714844 " clip-rule="nonzero"/></clipPath><clipPath id="0a3226f613"><path d="M 181 68 L 200 68 L 200 84 L 181 84 Z M 181 68 " clip-rule="nonzero"/></clipPath><clipPath id="6f49452824"><path d="M 195.660156 68.746094 C 196.316406 68.746094 196.917969 68.882812 197.464844 69.152344 C 198.019531 69.414062 198.457031 69.769531 198.777344 70.214844 C 199.105469 70.664062 199.269531 71.164062 199.269531 71.714844 L 199.269531 74.667969 C 199.269531 75.207031 199.105469 75.703125 198.777344 76.148438 C 198.457031 76.597656 198.019531 76.957031 197.464844 77.226562 C 196.917969 77.488281 196.316406 77.617188 195.660156 77.617188 L 184.859375 77.617188 L 184.859375 83.539062 L 181.265625 83.539062 L 181.265625 68.746094 Z M 184.859375 74.667969 L 195.660156 74.667969 L 195.660156 71.714844 L 184.859375 71.714844 Z M 184.859375 74.667969 " clip-rule="nonzero"/></clipPath><clipPath id="514463dc6d"><path d="M 201 68 L 220 68 L 220 84 L 201 84 Z M 201 68 " clip-rule="nonzero"/></clipPath><clipPath id="2d2be0b54e"><path d="M 219.058594 68.746094 L 219.058594 71.714844 L 204.648438 71.714844 L 204.648438 74.667969 L 219.058594 74.667969 L 219.058594 77.617188 L 204.648438 77.617188 L 204.648438 80.585938 L 219.058594 80.585938 L 219.058594 83.539062 L 204.648438 83.539062 C 203.988281 83.539062 203.390625 83.410156 202.84375 83.144531 C 202.300781 82.878906 201.859375 82.515625 201.535156 82.070312 C 201.214844 81.621094 201.054688 81.128906 201.054688 80.585938 L 201.054688 71.714844 C 201.054688 71.164062 201.214844 70.664062 201.535156 70.214844 C 201.859375 69.769531 202.300781 69.414062 202.84375 69.152344 C 203.390625 68.882812 203.988281 68.746094 204.648438 68.746094 Z M 219.058594 68.746094 " clip-rule="nonzero"/></clipPath></defs><g clip-path="url(#93c1fd26bc)"><g clip-path="url(#b9a325ef18)"><path fill="#ffffff" d="M 42.746094 68.746094 L 42.746094 83.539062 L 60.746094 83.539062 L 60.746094 68.746094 Z M 42.746094 68.746094 " fill-opacity="1" fill-rule="nonzero"/></g></g><g clip-path="url(#f9b785de3f)"><path fill="#ffffff" d="M 62.535156 68.746094 L 62.535156 83.539062 L 80.535156 83.539062 L 80.535156 68.746094 Z M 62.535156 68.746094 " fill-opacity="1" fill-rule="nonzero"/></g><g clip-path="url(#c2bf7b34da)"><g clip-path="url(#e453d0d42a)"><path fill="#ffffff" d="M 82.324219 68.746094 L 82.324219 83.539062 L 100.324219 83.539062 L 100.324219 68.746094 Z M 82.324219 68.746094 " fill-opacity="1" fill-rule="nonzero"/></g></g><g clip-path="url(#504a1abdc4)"><g clip-path="url(#ee4740923b)"><path fill="#ffffff" d="M 102.113281 68.746094 L 102.113281 83.539062 L 120.113281 83.539062 L 120.113281 68.746094 Z M 102.113281 68.746094 " fill-opacity="1" fill-rule="nonzero"/></g></g><g clip-path="url(#56c9adb08f)"><g clip-path="url(#bb0728edc4)"><path fill="#ffffff" d="M 121.902344 68.746094 L 121.902344 83.539062 L 139.902344 83.539062 L 139.902344 68.746094 Z M 121.902344 68.746094 " fill-opacity="1" fill-rule="nonzero"/></g></g><g clip-path="url(#62ba3a5c34)"><path fill="#ffffff" d="M 141.691406 68.746094 L 141.691406 83.539062 L 159.691406 83.539062 L 159.691406 68.746094 Z M 141.691406 68.746094 " fill-opacity="1" fill-rule="nonzero"/></g><g clip-path="url(#2617fa0236)"><g clip-path="url(#50981a2202)"><path fill="#ffffff" d="M 161.476562 68.746094 L 161.476562 83.539062 L 179.480469 83.539062 L 179.480469 68.746094 Z M 161.476562 68.746094 " fill-opacity="1" fill-rule="nonzero"/></g></g><g clip-path="url(#0a3226f613)"><g clip-path="url(#6f49452824)"><path fill="#ffffff" d="M 181.265625 68.746094 L 181.265625 83.539062 L 199.269531 83.539062 L 199.269531 68.746094 Z M 181.265625 68.746094 " fill-opacity="1" fill-rule="nonzero"/></g></g><g clip-path="url(#514463dc6d)"><g clip-path="url(#2d2be0b54e)"><path fill="#ffffff" d="M 201.054688 68.746094 L 201.054688 83.539062 L 219.058594 83.539062 L 219.058594 68.746094 Z M 201.054688 68.746094 " fill-opacity="1" fill-rule="nonzero"/></g></g></svg>