<svg xmlns="http://www.w3.org/2000/svg" xmlns:xlink="http://www.w3.org/1999/xlink" width="300" zoomAndPan="magnify" viewBox="0 0 224.87999 112.499997" height="150" preserveAspectRatio="xMidYMid meet" version="1.0"><defs><g/></defs><g fill="#ffffff" fill-opacity="1"><g transform="translate(11.638006, 68.338108)"><g><path d="M 5.640625 0 L 1.125 0 L 1.125 -20.328125 C 1.125 -20.953125 1.34375 -21.484375 1.78125 -21.921875 C 2.226562 -22.367188 2.765625 -22.59375 3.390625 -22.59375 C 4.003906 -22.59375 4.539062 -22.363281 5 -21.90625 L 19.203125 -7.703125 L 19.203125 -22.59375 L 23.71875 -22.59375 L 23.71875 -2.265625 C 23.71875 -1.640625 23.492188 -1.101562 23.046875 -0.65625 C 22.609375 -0.21875 22.078125 0 21.453125 0 C 20.835938 0 20.300781 -0.222656 19.84375 -0.671875 L 5.640625 -14.875 Z M 5.640625 0 "/></g></g></g><g fill="#ffffff" fill-opacity="1"><g transform="translate(36.480974, 68.338108)"><g><path d="M 23.71875 -22.59375 L 23.71875 -18.0625 L 5.640625 -18.0625 L 5.640625 -13.546875 L 23.71875 -13.546875 L 23.71875 -9.03125 L 5.640625 -9.03125 L 5.640625 -4.515625 L 23.71875 -4.515625 L 23.71875 0 L 5.640625 0 C 4.816406 0 4.0625 -0.203125 3.375 -0.609375 C 2.6875 -1.015625 2.140625 -1.5625 1.734375 -2.25 C 1.328125 -2.9375 1.125 -3.691406 1.125 -4.515625 L 1.125 -18.0625 C 1.125 -18.894531 1.328125 -19.65625 1.734375 -20.34375 C 2.140625 -21.03125 2.6875 -21.578125 3.375 -21.984375 C 4.0625 -22.390625 4.816406 -22.59375 5.640625 -22.59375 Z M 23.71875 -22.59375 "/></g></g></g><g fill="#ffffff" fill-opacity="1"><g transform="translate(61.323942, 68.338108)"><g><path d="M 23.71875 -22.59375 L 23.71875 -18.0625 L 14.6875 -18.0625 L 14.6875 0 L 10.171875 0 L 10.171875 -18.0625 L 1.125 -18.0625 L 1.125 -22.59375 Z M 23.71875 -22.59375 "/></g></g></g><g fill="#ffffff" fill-opacity="1"><g transform="translate(86.16691, 68.338108)"><g><path d="M 23.71875 -22.59375 L 23.71875 -18.0625 L 5.640625 -18.0625 L 5.640625 -4.515625 L 19.203125 -4.515625 L 19.203125 -9.03125 L 10.171875 -9.03125 L 10.171875 -13.546875 L 23.71875 -13.546875 L 23.71875 -4.515625 C 23.71875 -3.703125 23.515625 -2.953125 23.109375 -2.265625 C 22.703125 -1.585938 22.160156 -1.039062 21.484375 -0.625 C 20.804688 -0.207031 20.046875 0 19.203125 0 L 5.640625 0 C 4.816406 0 4.0625 -0.203125 3.375 -0.609375 C 2.6875 -1.015625 2.140625 -1.5625 1.734375 -2.25 C 1.328125 -2.9375 1.125 -3.691406 1.125 -4.515625 L 1.125 -18.0625 C 1.125 -18.894531 1.328125 -19.65625 1.734375 -20.34375 C 2.140625 -21.03125 2.6875 -21.578125 3.375 -21.984375 C 4.0625 -22.390625 4.816406 -22.59375 5.640625 -22.59375 Z M 23.71875 -22.59375 "/></g></g></g><g fill="#ffffff" fill-opacity="1"><g transform="translate(111.009878, 68.338108)"><g><path d="M 23.71875 -22.59375 L 23.71875 -18.0625 L 5.640625 -18.0625 L 5.640625 -13.546875 L 23.71875 -13.546875 L 23.71875 -9.03125 L 5.640625 -9.03125 L 5.640625 -4.515625 L 23.71875 -4.515625 L 23.71875 0 L 5.640625 0 C 4.816406 0 4.0625 -0.203125 3.375 -0.609375 C 2.6875 -1.015625 2.140625 -1.5625 1.734375 -2.25 C 1.328125 -2.9375 1.125 -3.691406 1.125 -4.515625 L 1.125 -18.0625 C 1.125 -18.894531 1.328125 -19.65625 1.734375 -20.34375 C 2.140625 -21.03125 2.6875 -21.578125 3.375 -21.984375 C 4.0625 -22.390625 4.816406 -22.59375 5.640625 -22.59375 Z M 23.71875 -22.59375 "/></g></g></g><g fill="#ffffff" fill-opacity="1"><g transform="translate(135.852846, 68.338108)"><g><path d="M 5.640625 0 L 1.125 0 L 1.125 -20.328125 C 1.125 -20.953125 1.34375 -21.484375 1.78125 -21.921875 C 2.226562 -22.367188 2.765625 -22.59375 3.390625 -22.59375 C 4.003906 -22.59375 4.539062 -22.363281 5 -21.90625 L 19.203125 -7.703125 L 19.203125 -22.59375 L 23.71875 -22.59375 L 23.71875 -2.265625 C 23.71875 -1.640625 23.492188 -1.101562 23.046875 -0.65625 C 22.609375 -0.21875 22.078125 0 21.453125 0 C 20.835938 0 20.300781 -0.222656 19.84375 -0.671875 L 5.640625 -14.875 Z M 5.640625 0 "/></g></g></g><g fill="#ffffff" fill-opacity="1"><g transform="translate(160.695813, 68.338108)"><g><path d="M 23.71875 0 L 1.125 0 L 1.125 -4.515625 L 10.171875 -4.515625 L 10.171875 -18.0625 L 1.125 -18.0625 L 1.125 -22.59375 L 23.71875 -22.59375 L 23.71875 -18.0625 L 14.6875 -18.0625 L 14.6875 -4.515625 L 23.71875 -4.515625 Z M 23.71875 0 "/></g></g></g><g fill="#ffffff" fill-opacity="1"><g transform="translate(185.538774, 68.338108)"><g><path d="M 23.71875 -22.59375 L 23.71875 -18.0625 L 5.640625 -18.0625 L 5.640625 -13.546875 L 23.71875 -13.546875 L 23.71875 -9.03125 L 5.640625 -9.03125 L 5.640625 -4.515625 L 23.71875 -4.515625 L 23.71875 0 L 5.640625 0 C 4.816406 0 4.0625 -0.203125 3.375 -0.609375 C 2.6875 -1.015625 2.140625 -1.5625 1.734375 -2.25 C 1.328125 -2.9375 1.125 -3.691406 1.125 -4.515625 L 1.125 -18.0625 C 1.125 -18.894531 1.328125 -19.65625 1.734375 -20.34375 C 2.140625 -21.03125 2.6875 -21.578125 3.375 -21.984375 C 4.0625 -22.390625 4.816406 -22.59375 5.640625 -22.59375 Z M 23.71875 -22.59375 "/></g></g></g></svg>