<svg xmlns="http://www.w3.org/2000/svg" xmlns:xlink="http://www.w3.org/1999/xlink" width="500" zoomAndPan="magnify" viewBox="0 0 375 374.999991" height="500" preserveAspectRatio="xMidYMid meet" version="1.0"><defs><g/></defs><g fill="#fb4804" fill-opacity="1"><g transform="translate(55.921875, 203.249987)"><g><path d="M 8 0 L 1.59375 0 L 1.59375 -28.796875 C 1.59375 -29.679688 1.90625 -30.4375 2.53125 -31.0625 C 3.164062 -31.6875 3.921875 -32 4.796875 -32 C 5.679688 -32 6.441406 -31.679688 7.078125 -31.046875 L 27.203125 -10.921875 L 27.203125 -32 L 33.59375 -32 L 33.59375 -3.203125 C 33.59375 -2.316406 33.28125 -1.5625 32.65625 -0.9375 C 32.03125 -0.3125 31.28125 0 30.40625 0 C 29.519531 0 28.757812 -0.316406 28.125 -0.953125 L 8 -21.078125 Z M 8 0 "/></g></g></g><g fill="#fb4804" fill-opacity="1"><g transform="translate(91.118383, 203.249987)"><g><path d="M 33.59375 -32 L 33.59375 -25.59375 L 8 -25.59375 L 8 -19.203125 L 33.59375 -19.203125 L 33.59375 -12.796875 L 8 -12.796875 L 8 -6.40625 L 33.59375 -6.40625 L 33.59375 0 L 8 0 C 6.820312 0 5.742188 -0.285156 4.765625 -0.859375 C 3.796875 -1.429688 3.023438 -2.203125 2.453125 -3.171875 C 1.878906 -4.148438 1.59375 -5.226562 1.59375 -6.40625 L 1.59375 -25.59375 C 1.59375 -26.769531 1.878906 -27.84375 2.453125 -28.8125 C 3.023438 -29.789062 3.796875 -30.566406 4.765625 -31.140625 C 5.742188 -31.710938 6.820312 -32 8 -32 Z M 33.59375 -32 "/></g></g></g><g fill="#fb4804" fill-opacity="1"><g transform="translate(126.314891, 203.249987)"><g><path d="M 33.59375 -32 L 33.59375 -25.59375 L 20.796875 -25.59375 L 20.796875 0 L 14.40625 0 L 14.40625 -25.59375 L 1.59375 -25.59375 L 1.59375 -32 Z M 33.59375 -32 "/></g></g></g><g fill="#fb4804" fill-opacity="1"><g transform="translate(161.511398, 203.249987)"><g><path d="M 33.59375 -32 L 33.59375 -25.59375 L 8 -25.59375 L 8 -6.40625 L 27.203125 -6.40625 L 27.203125 -12.796875 L 14.40625 -12.796875 L 14.40625 -19.203125 L 33.59375 -19.203125 L 33.59375 -6.40625 C 33.59375 -5.257812 33.304688 -4.195312 32.734375 -3.21875 C 32.160156 -2.25 31.394531 -1.46875 30.4375 -0.875 C 29.476562 -0.289062 28.398438 0 27.203125 0 L 8 0 C 6.820312 0 5.742188 -0.285156 4.765625 -0.859375 C 3.796875 -1.429688 3.023438 -2.203125 2.453125 -3.171875 C 1.878906 -4.148438 1.59375 -5.226562 1.59375 -6.40625 L 1.59375 -25.59375 C 1.59375 -26.769531 1.878906 -27.84375 2.453125 -28.8125 C 3.023438 -29.789062 3.796875 -30.566406 4.765625 -31.140625 C 5.742188 -31.710938 6.820312 -32 8 -32 Z M 33.59375 -32 "/></g></g></g><g fill="#fb4804" fill-opacity="1"><g transform="translate(196.707906, 203.249987)"><g><path d="M 33.59375 -32 L 33.59375 -25.59375 L 8 -25.59375 L 8 -19.203125 L 33.59375 -19.203125 L 33.59375 -12.796875 L 8 -12.796875 L 8 -6.40625 L 33.59375 -6.40625 L 33.59375 0 L 8 0 C 6.820312 0 5.742188 -0.285156 4.765625 -0.859375 C 3.796875 -1.429688 3.023438 -2.203125 2.453125 -3.171875 C 1.878906 -4.148438 1.59375 -5.226562 1.59375 -6.40625 L 1.59375 -25.59375 C 1.59375 -26.769531 1.878906 -27.84375 2.453125 -28.8125 C 3.023438 -29.789062 3.796875 -30.566406 4.765625 -31.140625 C 5.742188 -31.710938 6.820312 -32 8 -32 Z M 33.59375 -32 "/></g></g></g><g fill="#fb4804" fill-opacity="1"><g transform="translate(231.904414, 203.249987)"><g><path d="M 8 0 L 1.59375 0 L 1.59375 -28.796875 C 1.59375 -29.679688 1.90625 -30.4375 2.53125 -31.0625 C 3.164062 -31.6875 3.921875 -32 4.796875 -32 C 5.679688 -32 6.441406 -31.679688 7.078125 -31.046875 L 27.203125 -10.921875 L 27.203125 -32 L 33.59375 -32 L 33.59375 -3.203125 C 33.59375 -2.316406 33.28125 -1.5625 32.65625 -0.9375 C 32.03125 -0.3125 31.28125 0 30.40625 0 C 29.519531 0 28.757812 -0.316406 28.125 -0.953125 L 8 -21.078125 Z M 8 0 "/></g></g></g><g fill="#fb4804" fill-opacity="1"><g transform="translate(267.100921, 203.249987)"><g><path d="M 33.59375 0 L 1.59375 0 L 1.59375 -6.40625 L 14.40625 -6.40625 L 14.40625 -25.59375 L 1.59375 -25.59375 L 1.59375 -32 L 33.59375 -32 L 33.59375 -25.59375 L 20.796875 -25.59375 L 20.796875 -6.40625 L 33.59375 -6.40625 Z M 33.59375 0 "/></g></g></g><g fill="#fb4804" fill-opacity="1"><g transform="translate(302.297429, 203.249987)"><g><path d="M 33.59375 -32 L 33.59375 -25.59375 L 8 -25.59375 L 8 -19.203125 L 33.59375 -19.203125 L 33.59375 -12.796875 L 8 -12.796875 L 8 -6.40625 L 33.59375 -6.40625 L 33.59375 0 L 8 0 C 6.820312 0 5.742188 -0.285156 4.765625 -0.859375 C 3.796875 -1.429688 3.023438 -2.203125 2.453125 -3.171875 C 1.878906 -4.148438 1.59375 -5.226562 1.59375 -6.40625 L 1.59375 -25.59375 C 1.59375 -26.769531 1.878906 -27.84375 2.453125 -28.8125 C 3.023438 -29.789062 3.796875 -30.566406 4.765625 -31.140625 C 5.742188 -31.710938 6.820312 -32 8 -32 Z M 33.59375 -32 "/></g></g></g></svg>