<svg xmlns="http://www.w3.org/2000/svg" xmlns:xlink="http://www.w3.org/1999/xlink" width="300" zoomAndPan="magnify" viewBox="0 0 224.87999 187.499995" height="250" preserveAspectRatio="xMidYMid meet" version="1.0"><defs><g/><clipPath id="d20e158ca0"><path d="M 8.542969 54.085938 L 90 54.085938 L 90 135.621094 L 8.542969 135.621094 Z M 8.542969 54.085938 " clip-rule="nonzero"/></clipPath><clipPath id="10afc7394c"><path d="M 30.433594 54.535156 L 26.507812 70.542969 L 48.1875 93.285156 L 47.742188 93.957031 L 24.996094 72.355469 L 8.988281 76.28125 L 48.25 95.003906 L 8.988281 113.730469 L 24.695312 117.65625 L 47.515625 96.421875 L 47.964844 96.871094 L 26.507812 119.46875 L 30.734375 135.171875 L 49.457031 95.910156 L 68.183594 135.171875 L 72.109375 119.46875 L 50.667969 96.816406 L 51.101562 96.421875 L 73.921875 117.65625 L 89.625 113.425781 L 50.367188 95.003906 L 89.625 75.976562 L 73.621094 72.355469 L 50.652344 93.957031 L 50.203125 93.511719 L 72.109375 70.542969 L 68.183594 54.535156 L 49.15625 93.796875 Z M 30.433594 54.535156 " clip-rule="nonzero"/></clipPath><linearGradient x1="182" gradientTransform="matrix(0.223991, 0, 0, 0.223991, 8.541957, 54.087607)" y1="1.999981" x2="182" gradientUnits="userSpaceOnUse" y2="361.999987" id="137dad14a9"><stop stop-opacity="1" stop-color="rgb(100%, 59.999084%, 0%)" offset="0"/><stop stop-opacity="1" stop-color="rgb(99.978638%, 59.873962%, 0.0518799%)" offset="0.0078125"/><stop stop-opacity="1" stop-color="rgb(99.938965%, 59.625244%, 0.15564%)" offset="0.015625"/><stop stop-opacity="1" stop-color="rgb(99.899292%, 59.378052%, 0.259399%)" offset="0.0234375"/><stop stop-opacity="1" stop-color="rgb(99.859619%, 59.129333%, 0.363159%)" offset="0.03125"/><stop stop-opacity="1" stop-color="rgb(99.819946%, 58.880615%, 0.466919%)" offset="0.0390625"/><stop stop-opacity="1" stop-color="rgb(99.780273%, 58.631897%, 0.570679%)" offset="0.046875"/><stop stop-opacity="1" stop-color="rgb(99.740601%, 58.383179%, 0.674438%)" offset="0.0546875"/><stop stop-opacity="1" stop-color="rgb(99.700928%, 58.135986%, 0.778198%)" offset="0.0625"/><stop stop-opacity="1" stop-color="rgb(99.659729%, 57.887268%, 0.881958%)" offset="0.0703125"/><stop stop-opacity="1" stop-color="rgb(99.620056%, 57.63855%, 0.985718%)" offset="0.078125"/><stop stop-opacity="1" stop-color="rgb(99.580383%, 57.389832%, 1.089478%)" offset="0.0859375"/><stop stop-opacity="1" stop-color="rgb(99.54071%, 57.141113%, 1.194763%)" offset="0.09375"/><stop stop-opacity="1" stop-color="rgb(99.501038%, 56.892395%, 1.298523%)" offset="0.101563"/><stop stop-opacity="1" stop-color="rgb(99.461365%, 56.645203%, 1.402283%)" offset="0.109375"/><stop stop-opacity="1" stop-color="rgb(99.421692%, 56.396484%, 1.506042%)" offset="0.117188"/><stop stop-opacity="1" stop-color="rgb(99.382019%, 56.147766%, 1.609802%)" offset="0.125"/><stop stop-opacity="1" stop-color="rgb(99.342346%, 55.899048%, 1.713562%)" offset="0.132813"/><stop stop-opacity="1" stop-color="rgb(99.301147%, 55.65033%, 1.817322%)" offset="0.140625"/><stop stop-opacity="1" stop-color="rgb(99.261475%, 55.403137%, 1.921082%)" offset="0.148438"/><stop stop-opacity="1" stop-color="rgb(99.221802%, 55.154419%, 2.024841%)" offset="0.15625"/><stop stop-opacity="1" stop-color="rgb(99.182129%, 54.905701%, 2.128601%)" offset="0.164063"/><stop stop-opacity="1" stop-color="rgb(99.142456%, 54.656982%, 2.233887%)" offset="0.171875"/><stop stop-opacity="1" stop-color="rgb(99.102783%, 54.408264%, 2.337646%)" offset="0.179688"/><stop stop-opacity="1" stop-color="rgb(99.06311%, 54.161072%, 2.441406%)" offset="0.1875"/><stop stop-opacity="1" stop-color="rgb(99.023438%, 53.912354%, 2.545166%)" offset="0.195313"/><stop stop-opacity="1" stop-color="rgb(98.983765%, 53.663635%, 2.648926%)" offset="0.203125"/><stop stop-opacity="1" stop-color="rgb(98.942566%, 53.414917%, 2.752686%)" offset="0.210938"/><stop stop-opacity="1" stop-color="rgb(98.902893%, 53.166199%, 2.856445%)" offset="0.21875"/><stop stop-opacity="1" stop-color="rgb(98.86322%, 52.91748%, 2.960205%)" offset="0.226562"/><stop stop-opacity="1" stop-color="rgb(98.823547%, 52.670288%, 3.063965%)" offset="0.234375"/><stop stop-opacity="1" stop-color="rgb(98.783875%, 52.42157%, 3.167725%)" offset="0.242188"/><stop stop-opacity="1" stop-color="rgb(98.744202%, 52.172852%, 3.271484%)" offset="0.25"/><stop stop-opacity="1" stop-color="rgb(98.704529%, 51.924133%, 3.37677%)" offset="0.257813"/><stop stop-opacity="1" stop-color="rgb(98.664856%, 51.675415%, 3.48053%)" offset="0.265625"/><stop stop-opacity="1" stop-color="rgb(98.625183%, 51.428223%, 3.58429%)" offset="0.273438"/><stop stop-opacity="1" stop-color="rgb(98.583984%, 51.179504%, 3.688049%)" offset="0.28125"/><stop stop-opacity="1" stop-color="rgb(98.544312%, 50.930786%, 3.791809%)" offset="0.289063"/><stop stop-opacity="1" stop-color="rgb(98.504639%, 50.682068%, 3.895569%)" offset="0.296875"/><stop stop-opacity="1" stop-color="rgb(98.464966%, 50.43335%, 3.999329%)" offset="0.304688"/><stop stop-opacity="1" stop-color="rgb(98.425293%, 50.184631%, 4.103088%)" offset="0.3125"/><stop stop-opacity="1" stop-color="rgb(98.38562%, 49.937439%, 4.206848%)" offset="0.320313"/><stop stop-opacity="1" stop-color="rgb(98.345947%, 49.688721%, 4.310608%)" offset="0.328125"/><stop stop-opacity="1" stop-color="rgb(98.306274%, 49.440002%, 4.415894%)" offset="0.335938"/><stop stop-opacity="1" stop-color="rgb(98.266602%, 49.191284%, 4.519653%)" offset="0.34375"/><stop stop-opacity="1" stop-color="rgb(98.225403%, 48.942566%, 4.623413%)" offset="0.351563"/><stop stop-opacity="1" stop-color="rgb(98.18573%, 48.695374%, 4.727173%)" offset="0.359375"/><stop stop-opacity="1" stop-color="rgb(98.146057%, 48.446655%, 4.830933%)" offset="0.367188"/><stop stop-opacity="1" stop-color="rgb(98.106384%, 48.197937%, 4.934692%)" offset="0.375"/><stop stop-opacity="1" stop-color="rgb(98.066711%, 47.949219%, 5.038452%)" offset="0.382813"/><stop stop-opacity="1" stop-color="rgb(98.027039%, 47.7005%, 5.142212%)" offset="0.390625"/><stop stop-opacity="1" stop-color="rgb(97.987366%, 47.451782%, 5.245972%)" offset="0.398438"/><stop stop-opacity="1" stop-color="rgb(97.947693%, 47.20459%, 5.349731%)" offset="0.40625"/><stop stop-opacity="1" stop-color="rgb(97.90802%, 46.955872%, 5.453491%)" offset="0.414063"/><stop stop-opacity="1" stop-color="rgb(97.866821%, 46.707153%, 5.558777%)" offset="0.421875"/><stop stop-opacity="1" stop-color="rgb(97.827148%, 46.458435%, 5.662537%)" offset="0.429688"/><stop stop-opacity="1" stop-color="rgb(97.787476%, 46.209717%, 5.766296%)" offset="0.4375"/><stop stop-opacity="1" stop-color="rgb(97.747803%, 45.962524%, 5.870056%)" offset="0.445312"/><stop stop-opacity="1" stop-color="rgb(97.70813%, 45.713806%, 5.973816%)" offset="0.453125"/><stop stop-opacity="1" stop-color="rgb(97.668457%, 45.465088%, 6.077576%)" offset="0.460938"/><stop stop-opacity="1" stop-color="rgb(97.628784%, 45.21637%, 6.181335%)" offset="0.46875"/><stop stop-opacity="1" stop-color="rgb(97.589111%, 44.967651%, 6.285095%)" offset="0.476562"/><stop stop-opacity="1" stop-color="rgb(97.549438%, 44.720459%, 6.388855%)" offset="0.484375"/><stop stop-opacity="1" stop-color="rgb(97.50824%, 44.471741%, 6.492615%)" offset="0.492188"/><stop stop-opacity="1" stop-color="rgb(97.468567%, 44.223022%, 6.5979%)" offset="0.5"/><stop stop-opacity="1" stop-color="rgb(97.428894%, 43.974304%, 6.70166%)" offset="0.507813"/><stop stop-opacity="1" stop-color="rgb(97.389221%, 43.725586%, 6.80542%)" offset="0.515625"/><stop stop-opacity="1" stop-color="rgb(97.349548%, 43.476868%, 6.90918%)" offset="0.523438"/><stop stop-opacity="1" stop-color="rgb(97.309875%, 43.229675%, 7.012939%)" offset="0.53125"/><stop stop-opacity="1" stop-color="rgb(97.270203%, 42.980957%, 7.116699%)" offset="0.539063"/><stop stop-opacity="1" stop-color="rgb(97.23053%, 42.732239%, 7.220459%)" offset="0.546875"/><stop stop-opacity="1" stop-color="rgb(97.190857%, 42.483521%, 7.324219%)" offset="0.554688"/><stop stop-opacity="1" stop-color="rgb(97.149658%, 42.234802%, 7.427979%)" offset="0.5625"/><stop stop-opacity="1" stop-color="rgb(97.109985%, 41.98761%, 7.531738%)" offset="0.570313"/><stop stop-opacity="1" stop-color="rgb(97.070312%, 41.738892%, 7.637024%)" offset="0.578125"/><stop stop-opacity="1" stop-color="rgb(97.03064%, 41.490173%, 7.740784%)" offset="0.585938"/><stop stop-opacity="1" stop-color="rgb(96.990967%, 41.241455%, 7.844543%)" offset="0.59375"/><stop stop-opacity="1" stop-color="rgb(96.951294%, 40.992737%, 7.948303%)" offset="0.601563"/><stop stop-opacity="1" stop-color="rgb(96.911621%, 40.744019%, 8.052063%)" offset="0.609375"/><stop stop-opacity="1" stop-color="rgb(96.871948%, 40.496826%, 8.155823%)" offset="0.617188"/><stop stop-opacity="1" stop-color="rgb(96.832275%, 40.248108%, 8.259583%)" offset="0.625"/><stop stop-opacity="1" stop-color="rgb(96.791077%, 39.99939%, 8.363342%)" offset="0.632812"/><stop stop-opacity="1" stop-color="rgb(96.751404%, 39.750671%, 8.467102%)" offset="0.640625"/><stop stop-opacity="1" stop-color="rgb(96.711731%, 39.501953%, 8.570862%)" offset="0.648438"/><stop stop-opacity="1" stop-color="rgb(96.672058%, 39.254761%, 8.674622%)" offset="0.65625"/><stop stop-opacity="1" stop-color="rgb(96.632385%, 39.006042%, 8.779907%)" offset="0.664062"/><stop stop-opacity="1" stop-color="rgb(96.592712%, 38.757324%, 8.883667%)" offset="0.671875"/><stop stop-opacity="1" stop-color="rgb(96.55304%, 38.508606%, 8.987427%)" offset="0.679688"/><stop stop-opacity="1" stop-color="rgb(96.513367%, 38.259888%, 9.091187%)" offset="0.6875"/><stop stop-opacity="1" stop-color="rgb(96.473694%, 38.011169%, 9.194946%)" offset="0.695312"/><stop stop-opacity="1" stop-color="rgb(96.432495%, 37.763977%, 9.298706%)" offset="0.703125"/><stop stop-opacity="1" stop-color="rgb(96.392822%, 37.515259%, 9.402466%)" offset="0.710938"/><stop stop-opacity="1" stop-color="rgb(96.353149%, 37.266541%, 9.506226%)" offset="0.71875"/><stop stop-opacity="1" stop-color="rgb(96.313477%, 37.017822%, 9.609985%)" offset="0.726562"/><stop stop-opacity="1" stop-color="rgb(96.273804%, 36.769104%, 9.713745%)" offset="0.734375"/><stop stop-opacity="1" stop-color="rgb(96.234131%, 36.521912%, 9.819031%)" offset="0.742188"/><stop stop-opacity="1" stop-color="rgb(96.194458%, 36.273193%, 9.922791%)" offset="0.75"/><stop stop-opacity="1" stop-color="rgb(96.154785%, 36.024475%, 10.02655%)" offset="0.757813"/><stop stop-opacity="1" stop-color="rgb(96.115112%, 35.775757%, 10.13031%)" offset="0.765625"/><stop stop-opacity="1" stop-color="rgb(96.073914%, 35.527039%, 10.23407%)" offset="0.773438"/><stop stop-opacity="1" stop-color="rgb(96.034241%, 35.279846%, 10.33783%)" offset="0.78125"/><stop stop-opacity="1" stop-color="rgb(95.994568%, 35.031128%, 10.441589%)" offset="0.789063"/><stop stop-opacity="1" stop-color="rgb(95.954895%, 34.78241%, 10.545349%)" offset="0.796875"/><stop stop-opacity="1" stop-color="rgb(95.915222%, 34.533691%, 10.649109%)" offset="0.804688"/><stop stop-opacity="1" stop-color="rgb(95.875549%, 34.284973%, 10.752869%)" offset="0.8125"/><stop stop-opacity="1" stop-color="rgb(95.835876%, 34.036255%, 10.856628%)" offset="0.820313"/><stop stop-opacity="1" stop-color="rgb(95.796204%, 33.789062%, 10.961914%)" offset="0.828125"/><stop stop-opacity="1" stop-color="rgb(95.756531%, 33.540344%, 11.065674%)" offset="0.835938"/><stop stop-opacity="1" stop-color="rgb(95.715332%, 33.291626%, 11.169434%)" offset="0.84375"/><stop stop-opacity="1" stop-color="rgb(95.675659%, 33.042908%, 11.273193%)" offset="0.851563"/><stop stop-opacity="1" stop-color="rgb(95.635986%, 32.794189%, 11.376953%)" offset="0.859375"/><stop stop-opacity="1" stop-color="rgb(95.596313%, 32.546997%, 11.480713%)" offset="0.867188"/><stop stop-opacity="1" stop-color="rgb(95.556641%, 32.298279%, 11.584473%)" offset="0.875"/><stop stop-opacity="1" stop-color="rgb(95.516968%, 32.049561%, 11.688232%)" offset="0.882813"/><stop stop-opacity="1" stop-color="rgb(95.477295%, 31.800842%, 11.791992%)" offset="0.890625"/><stop stop-opacity="1" stop-color="rgb(95.437622%, 31.552124%, 11.895752%)" offset="0.898438"/><stop stop-opacity="1" stop-color="rgb(95.397949%, 31.303406%, 12.001038%)" offset="0.90625"/><stop stop-opacity="1" stop-color="rgb(95.35675%, 31.056213%, 12.104797%)" offset="0.914063"/><stop stop-opacity="1" stop-color="rgb(95.317078%, 30.807495%, 12.208557%)" offset="0.921875"/><stop stop-opacity="1" stop-color="rgb(95.277405%, 30.558777%, 12.312317%)" offset="0.929688"/><stop stop-opacity="1" stop-color="rgb(95.237732%, 30.310059%, 12.416077%)" offset="0.9375"/><stop stop-opacity="1" stop-color="rgb(95.198059%, 30.06134%, 12.519836%)" offset="0.945313"/><stop stop-opacity="1" stop-color="rgb(95.158386%, 29.814148%, 12.623596%)" offset="0.953125"/><stop stop-opacity="1" stop-color="rgb(95.118713%, 29.56543%, 12.727356%)" offset="0.960938"/><stop stop-opacity="1" stop-color="rgb(95.079041%, 29.316711%, 12.831116%)" offset="0.96875"/><stop stop-opacity="1" stop-color="rgb(95.039368%, 29.067993%, 12.934875%)" offset="0.976563"/><stop stop-opacity="1" stop-color="rgb(94.998169%, 28.819275%, 13.038635%)" offset="0.984375"/><stop stop-opacity="1" stop-color="rgb(94.958496%, 28.570557%, 13.143921%)" offset="0.992188"/><stop stop-opacity="1" stop-color="rgb(94.918823%, 28.323364%, 13.247681%)" offset="1"/></linearGradient><clipPath id="a6b610da43"><path d="M 8.542969 54.085938 L 90.074219 54.085938 L 90.074219 135.621094 L 8.542969 135.621094 Z M 8.542969 54.085938 " clip-rule="nonzero"/></clipPath></defs><g clip-path="url(#d20e158ca0)"><g clip-path="url(#10afc7394c)"><path fill="url(#137dad14a9)" d="M 8.988281 54.535156 L 8.988281 135.171875 L 89.625 135.171875 L 89.625 54.535156 Z M 8.988281 54.535156 " fill-rule="nonzero"/></g></g><g clip-path="url(#a6b610da43)"><path stroke-linecap="butt" transform="matrix(0.223991, 0, 0, 0.223991, 8.541958, 54.087603)" fill="none" stroke-linejoin="miter" d="M 97.734625 1.998091 L 80.20808 73.464543 L 176.996465 174.996431 L 175.00838 177.995999 L 73.459052 81.5564 L 1.9926 99.082946 L 177.275495 182.669745 L 1.9926 266.273983 L 72.116222 283.800528 L 173.996897 189.000228 L 176.002422 191.005753 L 80.20808 291.892386 L 99.077455 361.998568 L 182.664254 186.715673 L 266.268492 361.998568 L 283.795037 291.892386 L 188.070452 190.761602 L 190.006219 189.000228 L 291.886895 283.800528 L 361.993077 264.913713 L 186.727622 182.669745 L 361.993077 97.722677 L 290.544065 81.5564 L 188.000694 177.995999 L 185.995169 176.007913 L 283.795037 73.464543 L 266.268492 1.998091 L 181.321424 177.280986 Z M 97.734625 1.998091 " stroke="#000000" stroke-width="2" stroke-opacity="1" stroke-miterlimit="4"/></g><g fill="#f24822" fill-opacity="1"><g transform="translate(82.919752, 100.009761)"><g><path d="M 14.671875 -13.96875 L 14.671875 -11.1875 L 3.5 -11.1875 L 3.5 -8.390625 L 11.875 -8.390625 C 12.382812 -8.390625 12.851562 -8.265625 13.28125 -8.015625 C 13.707031 -7.765625 14.046875 -7.425781 14.296875 -7 C 14.546875 -6.570312 14.671875 -6.101562 14.671875 -5.59375 L 14.671875 -2.796875 C 14.671875 -2.285156 14.546875 -1.816406 14.296875 -1.390625 C 14.046875 -0.960938 13.707031 -0.625 13.28125 -0.375 C 12.851562 -0.125 12.382812 0 11.875 0 L 0.703125 0 L 0.703125 -2.796875 L 11.875 -2.796875 L 11.875 -5.59375 L 3.5 -5.59375 C 2.976562 -5.59375 2.503906 -5.71875 2.078125 -5.96875 C 1.660156 -6.21875 1.328125 -6.550781 1.078125 -6.96875 C 0.828125 -7.394531 0.703125 -7.867188 0.703125 -8.390625 L 0.703125 -11.1875 C 0.703125 -11.695312 0.828125 -12.160156 1.078125 -12.578125 C 1.328125 -13.003906 1.660156 -13.34375 2.078125 -13.59375 C 2.503906 -13.84375 2.976562 -13.96875 3.5 -13.96875 Z M 14.671875 -13.96875 "/></g></g></g><g fill="#f24822" fill-opacity="1"><g transform="translate(98.2822, 100.009761)"><g><path d="M 14.671875 -13.96875 L 14.671875 -11.1875 L 9.078125 -11.1875 L 9.078125 0 L 6.28125 0 L 6.28125 -11.1875 L 0.703125 -11.1875 L 0.703125 -13.96875 Z M 14.671875 -13.96875 "/></g></g></g><g fill="#f24822" fill-opacity="1"><g transform="translate(113.644648, 100.009761)"><g><path d="M 3.5 -13.96875 L 11.875 -13.96875 C 12.382812 -13.96875 12.851562 -13.84375 13.28125 -13.59375 C 13.707031 -13.34375 14.046875 -13.003906 14.296875 -12.578125 C 14.546875 -12.160156 14.671875 -11.695312 14.671875 -11.1875 L 14.671875 0 L 11.875 0 L 11.875 -5.59375 L 3.5 -5.59375 L 3.5 0 L 0.703125 0 L 0.703125 -11.1875 C 0.703125 -11.695312 0.828125 -12.160156 1.078125 -12.578125 C 1.328125 -13.003906 1.660156 -13.34375 2.078125 -13.59375 C 2.503906 -13.84375 2.976562 -13.96875 3.5 -13.96875 Z M 3.5 -11.1875 L 3.5 -8.390625 L 11.875 -8.390625 L 11.875 -11.1875 Z M 3.5 -11.1875 "/></g></g></g><g fill="#f24822" fill-opacity="1"><g transform="translate(129.007096, 100.009761)"><g><path d="M 14.671875 -11.1875 L 14.671875 -8.390625 C 14.671875 -7.867188 14.546875 -7.394531 14.296875 -6.96875 C 14.046875 -6.550781 13.707031 -6.21875 13.28125 -5.96875 C 12.851562 -5.71875 12.382812 -5.59375 11.875 -5.59375 L 9.078125 -5.59375 L 11.875 -2.796875 L 14.671875 -2.796875 L 14.671875 0 L 11.3125 0 C 10.914062 0 10.582031 -0.140625 10.3125 -0.421875 L 5.140625 -5.59375 L 3.5 -5.59375 L 3.5 0 L 0.703125 0 L 0.703125 -13.96875 L 11.875 -13.96875 C 12.382812 -13.96875 12.851562 -13.84375 13.28125 -13.59375 C 13.707031 -13.34375 14.046875 -13.003906 14.296875 -12.578125 C 14.546875 -12.160156 14.671875 -11.695312 14.671875 -11.1875 Z M 11.875 -11.1875 L 3.5 -11.1875 L 3.5 -8.390625 L 11.875 -8.390625 Z M 11.875 -11.1875 "/></g></g></g><g fill="#f24822" fill-opacity="1"><g transform="translate(144.369544, 100.009761)"><g><path d="M 14.671875 -13.96875 L 14.671875 -11.1875 L 3.5 -11.1875 L 3.5 -8.390625 L 11.875 -8.390625 C 12.382812 -8.390625 12.851562 -8.265625 13.28125 -8.015625 C 13.707031 -7.765625 14.046875 -7.425781 14.296875 -7 C 14.546875 -6.570312 14.671875 -6.101562 14.671875 -5.59375 L 14.671875 -2.796875 C 14.671875 -2.285156 14.546875 -1.816406 14.296875 -1.390625 C 14.046875 -0.960938 13.707031 -0.625 13.28125 -0.375 C 12.851562 -0.125 12.382812 0 11.875 0 L 0.703125 0 L 0.703125 -2.796875 L 11.875 -2.796875 L 11.875 -5.59375 L 3.5 -5.59375 C 2.976562 -5.59375 2.503906 -5.71875 2.078125 -5.96875 C 1.660156 -6.21875 1.328125 -6.550781 1.078125 -6.96875 C 0.828125 -7.394531 0.703125 -7.867188 0.703125 -8.390625 L 0.703125 -11.1875 C 0.703125 -11.695312 0.828125 -12.160156 1.078125 -12.578125 C 1.328125 -13.003906 1.660156 -13.34375 2.078125 -13.59375 C 2.503906 -13.84375 2.976562 -13.96875 3.5 -13.96875 Z M 14.671875 -13.96875 "/></g></g></g><g fill="#f24822" fill-opacity="1"><g transform="translate(159.731992, 100.009761)"><g><path d="M 11.875 -8.390625 L 11.875 -13.96875 L 14.671875 -13.96875 L 14.671875 0 L 11.875 0 L 11.875 -5.59375 L 3.5 -5.59375 L 3.5 0 L 0.703125 0 L 0.703125 -13.96875 L 3.5 -13.96875 L 3.5 -8.390625 Z M 11.875 -8.390625 "/></g></g></g><g fill="#f24822" fill-opacity="1"><g transform="translate(175.09444, 100.009761)"><g><path d="M 3.5 -13.96875 L 11.875 -13.96875 C 12.382812 -13.96875 12.851562 -13.84375 13.28125 -13.59375 C 13.707031 -13.34375 14.046875 -13.003906 14.296875 -12.578125 C 14.546875 -12.160156 14.671875 -11.695312 14.671875 -11.1875 L 14.671875 0 L 11.875 0 L 11.875 -5.59375 L 3.5 -5.59375 L 3.5 0 L 0.703125 0 L 0.703125 -11.1875 C 0.703125 -11.695312 0.828125 -12.160156 1.078125 -12.578125 C 1.328125 -13.003906 1.660156 -13.34375 2.078125 -13.59375 C 2.503906 -13.84375 2.976562 -13.96875 3.5 -13.96875 Z M 3.5 -11.1875 L 3.5 -8.390625 L 11.875 -8.390625 L 11.875 -11.1875 Z M 3.5 -11.1875 "/></g></g></g><g fill="#f24822" fill-opacity="1"><g transform="translate(190.456888, 100.009761)"><g><path d="M 11.875 -13.96875 C 12.382812 -13.96875 12.851562 -13.84375 13.28125 -13.59375 C 13.707031 -13.34375 14.046875 -13.003906 14.296875 -12.578125 C 14.546875 -12.160156 14.671875 -11.695312 14.671875 -11.1875 L 14.671875 -8.390625 C 14.671875 -7.867188 14.546875 -7.394531 14.296875 -6.96875 C 14.046875 -6.550781 13.707031 -6.21875 13.28125 -5.96875 C 12.851562 -5.71875 12.382812 -5.59375 11.875 -5.59375 L 3.5 -5.59375 L 3.5 0 L 0.703125 0 L 0.703125 -13.96875 Z M 3.5 -8.390625 L 11.875 -8.390625 L 11.875 -11.1875 L 3.5 -11.1875 Z M 3.5 -8.390625 "/></g></g></g><g fill="#f24822" fill-opacity="1"><g transform="translate(205.819337, 100.009761)"><g><path d="M 14.671875 -13.96875 L 14.671875 -11.1875 L 3.5 -11.1875 L 3.5 -8.390625 L 14.671875 -8.390625 L 14.671875 -5.59375 L 3.5 -5.59375 L 3.5 -2.796875 L 14.671875 -2.796875 L 14.671875 0 L 3.5 0 C 2.976562 0 2.503906 -0.125 2.078125 -0.375 C 1.660156 -0.625 1.328125 -0.960938 1.078125 -1.390625 C 0.828125 -1.816406 0.703125 -2.285156 0.703125 -2.796875 L 0.703125 -11.1875 C 0.703125 -11.695312 0.828125 -12.160156 1.078125 -12.578125 C 1.328125 -13.003906 1.660156 -13.34375 2.078125 -13.59375 C 2.503906 -13.84375 2.976562 -13.96875 3.5 -13.96875 Z M 14.671875 -13.96875 "/></g></g></g></svg>