<svg xmlns="http://www.w3.org/2000/svg" xmlns:xlink="http://www.w3.org/1999/xlink" width="350" zoomAndPan="magnify" viewBox="0 0 262.5 149.999998" height="200" preserveAspectRatio="xMidYMid meet" version="1.0"><defs><g/></defs><path fill="#ffffff" d="M 71.730469 83.390625 C 67.71875 73.765625 59.695312 67.34375 50.070312 64.9375 C 50.871094 58.519531 55.683594 54.507812 61.300781 52.101562 C 50.871094 50.5 40.441406 53.707031 34.023438 60.925781 C 28.40625 56.917969 26.804688 50.5 28.40625 44.882812 C 22.792969 52.90625 19.582031 63.335938 22.792969 72.960938 C 17.175781 76.171875 10.757812 73.765625 5.945312 70.554688 C 9.957031 80.183594 17.980469 86.601562 27.605469 89.007812 C 26.804688 95.425781 21.988281 99.433594 16.375 101.84375 C 26.804688 103.445312 37.234375 100.238281 43.652344 93.019531 C 49.265625 97.027344 50.871094 103.445312 49.265625 109.0625 C 54.882812 101.039062 58.089844 90.609375 54.882812 80.984375 C 60.496094 77.773438 66.914062 80.183594 71.730469 83.390625 Z M 38.835938 82.988281 C 35.515625 82.988281 32.820312 80.296875 32.820312 76.972656 C 32.820312 73.648438 35.515625 70.957031 38.835938 70.957031 C 42.160156 70.957031 44.855469 73.648438 44.855469 76.972656 C 44.855469 80.296875 42.160156 82.988281 38.835938 82.988281 Z M 38.835938 82.988281 " fill-opacity="1" fill-rule="nonzero"/><g fill="#ffffff" fill-opacity="1"><g transform="translate(76.195716, 87.923938)"><g><path d="M 19.234375 -18.328125 L 19.234375 -14.65625 L 4.578125 -14.65625 L 4.578125 -11 L 15.578125 -11 C 16.242188 -11 16.851562 -10.832031 17.40625 -10.5 C 17.96875 -10.175781 18.410156 -9.734375 18.734375 -9.171875 C 19.066406 -8.617188 19.234375 -8.003906 19.234375 -7.328125 L 19.234375 -3.671875 C 19.234375 -2.992188 19.066406 -2.375 18.734375 -1.8125 C 18.410156 -1.257812 17.96875 -0.816406 17.40625 -0.484375 C 16.851562 -0.160156 16.242188 0 15.578125 0 L 0.921875 0 L 0.921875 -3.671875 L 15.578125 -3.671875 L 15.578125 -7.328125 L 4.578125 -7.328125 C 3.910156 -7.328125 3.296875 -7.488281 2.734375 -7.8125 C 2.179688 -8.144531 1.738281 -8.585938 1.40625 -9.140625 C 1.082031 -9.703125 0.921875 -10.320312 0.921875 -11 L 0.921875 -14.65625 C 0.921875 -15.332031 1.082031 -15.945312 1.40625 -16.5 C 1.738281 -17.0625 2.179688 -17.503906 2.734375 -17.828125 C 3.296875 -18.160156 3.910156 -18.328125 4.578125 -18.328125 Z M 19.234375 -18.328125 "/></g></g></g><g fill="#ffffff" fill-opacity="1"><g transform="translate(96.347873, 87.923938)"><g><path d="M 19.234375 -18.328125 L 19.234375 -14.65625 L 11.90625 -14.65625 L 11.90625 0 L 8.25 0 L 8.25 -14.65625 L 0.921875 -14.65625 L 0.921875 -18.328125 Z M 19.234375 -18.328125 "/></g></g></g><g fill="#ffffff" fill-opacity="1"><g transform="translate(116.50003, 87.923938)"><g><path d="M 4.578125 -18.328125 L 15.578125 -18.328125 C 16.242188 -18.328125 16.851562 -18.160156 17.40625 -17.828125 C 17.96875 -17.503906 18.410156 -17.0625 18.734375 -16.5 C 19.066406 -15.945312 19.234375 -15.332031 19.234375 -14.65625 L 19.234375 0 L 15.578125 0 L 15.578125 -7.328125 L 4.578125 -7.328125 L 4.578125 0 L 0.921875 0 L 0.921875 -14.65625 C 0.921875 -15.332031 1.082031 -15.945312 1.40625 -16.5 C 1.738281 -17.0625 2.179688 -17.503906 2.734375 -17.828125 C 3.296875 -18.160156 3.910156 -18.328125 4.578125 -18.328125 Z M 4.578125 -14.65625 L 4.578125 -11 L 15.578125 -11 L 15.578125 -14.65625 Z M 4.578125 -14.65625 "/></g></g></g><g fill="#ffffff" fill-opacity="1"><g transform="translate(136.652187, 87.923938)"><g><path d="M 19.234375 -14.65625 L 19.234375 -11 C 19.234375 -10.320312 19.066406 -9.703125 18.734375 -9.140625 C 18.410156 -8.585938 17.96875 -8.144531 17.40625 -7.8125 C 16.851562 -7.488281 16.242188 -7.328125 15.578125 -7.328125 L 11.90625 -7.328125 L 15.578125 -3.671875 L 19.234375 -3.671875 L 19.234375 0 L 14.84375 0 C 14.320312 0 13.878906 -0.179688 13.515625 -0.546875 L 6.734375 -7.328125 L 4.578125 -7.328125 L 4.578125 0 L 0.921875 0 L 0.921875 -18.328125 L 15.578125 -18.328125 C 16.242188 -18.328125 16.851562 -18.160156 17.40625 -17.828125 C 17.96875 -17.503906 18.410156 -17.0625 18.734375 -16.5 C 19.066406 -15.945312 19.234375 -15.332031 19.234375 -14.65625 Z M 15.578125 -14.65625 L 4.578125 -14.65625 L 4.578125 -11 L 15.578125 -11 Z M 15.578125 -14.65625 "/></g></g></g><g fill="#ffffff" fill-opacity="1"><g transform="translate(156.804343, 87.923938)"><g><path d="M 19.234375 -18.328125 L 19.234375 -14.65625 L 4.578125 -14.65625 L 4.578125 -11 L 15.578125 -11 C 16.242188 -11 16.851562 -10.832031 17.40625 -10.5 C 17.96875 -10.175781 18.410156 -9.734375 18.734375 -9.171875 C 19.066406 -8.617188 19.234375 -8.003906 19.234375 -7.328125 L 19.234375 -3.671875 C 19.234375 -2.992188 19.066406 -2.375 18.734375 -1.8125 C 18.410156 -1.257812 17.96875 -0.816406 17.40625 -0.484375 C 16.851562 -0.160156 16.242188 0 15.578125 0 L 0.921875 0 L 0.921875 -3.671875 L 15.578125 -3.671875 L 15.578125 -7.328125 L 4.578125 -7.328125 C 3.910156 -7.328125 3.296875 -7.488281 2.734375 -7.8125 C 2.179688 -8.144531 1.738281 -8.585938 1.40625 -9.140625 C 1.082031 -9.703125 0.921875 -10.320312 0.921875 -11 L 0.921875 -14.65625 C 0.921875 -15.332031 1.082031 -15.945312 1.40625 -16.5 C 1.738281 -17.0625 2.179688 -17.503906 2.734375 -17.828125 C 3.296875 -18.160156 3.910156 -18.328125 4.578125 -18.328125 Z M 19.234375 -18.328125 "/></g></g></g><g fill="#ffffff" fill-opacity="1"><g transform="translate(176.9565, 87.923938)"><g><path d="M 15.578125 -11 L 15.578125 -18.328125 L 19.234375 -18.328125 L 19.234375 0 L 15.578125 0 L 15.578125 -7.328125 L 4.578125 -7.328125 L 4.578125 0 L 0.921875 0 L 0.921875 -18.328125 L 4.578125 -18.328125 L 4.578125 -11 Z M 15.578125 -11 "/></g></g></g><g fill="#ffffff" fill-opacity="1"><g transform="translate(197.108657, 87.923938)"><g><path d="M 4.578125 -18.328125 L 15.578125 -18.328125 C 16.242188 -18.328125 16.851562 -18.160156 17.40625 -17.828125 C 17.96875 -17.503906 18.410156 -17.0625 18.734375 -16.5 C 19.066406 -15.945312 19.234375 -15.332031 19.234375 -14.65625 L 19.234375 0 L 15.578125 0 L 15.578125 -7.328125 L 4.578125 -7.328125 L 4.578125 0 L 0.921875 0 L 0.921875 -14.65625 C 0.921875 -15.332031 1.082031 -15.945312 1.40625 -16.5 C 1.738281 -17.0625 2.179688 -17.503906 2.734375 -17.828125 C 3.296875 -18.160156 3.910156 -18.328125 4.578125 -18.328125 Z M 4.578125 -14.65625 L 4.578125 -11 L 15.578125 -11 L 15.578125 -14.65625 Z M 4.578125 -14.65625 "/></g></g></g><g fill="#ffffff" fill-opacity="1"><g transform="translate(217.260808, 87.923938)"><g><path d="M 15.578125 -18.328125 C 16.242188 -18.328125 16.851562 -18.160156 17.40625 -17.828125 C 17.96875 -17.503906 18.410156 -17.0625 18.734375 -16.5 C 19.066406 -15.945312 19.234375 -15.332031 19.234375 -14.65625 L 19.234375 -11 C 19.234375 -10.320312 19.066406 -9.703125 18.734375 -9.140625 C 18.410156 -8.585938 17.96875 -8.144531 17.40625 -7.8125 C 16.851562 -7.488281 16.242188 -7.328125 15.578125 -7.328125 L 4.578125 -7.328125 L 4.578125 0 L 0.921875 0 L 0.921875 -18.328125 Z M 4.578125 -11 L 15.578125 -11 L 15.578125 -14.65625 L 4.578125 -14.65625 Z M 4.578125 -11 "/></g></g></g><g fill="#ffffff" fill-opacity="1"><g transform="translate(237.412971, 87.923938)"><g><path d="M 19.234375 -18.328125 L 19.234375 -14.65625 L 4.578125 -14.65625 L 4.578125 -11 L 19.234375 -11 L 19.234375 -7.328125 L 4.578125 -7.328125 L 4.578125 -3.671875 L 19.234375 -3.671875 L 19.234375 0 L 4.578125 0 C 3.910156 0 3.296875 -0.160156 2.734375 -0.484375 C 2.179688 -0.816406 1.738281 -1.257812 1.40625 -1.8125 C 1.082031 -2.375 0.921875 -2.992188 0.921875 -3.671875 L 0.921875 -14.65625 C 0.921875 -15.332031 1.082031 -15.945312 1.40625 -16.5 C 1.738281 -17.0625 2.179688 -17.503906 2.734375 -17.828125 C 3.296875 -18.160156 3.910156 -18.328125 4.578125 -18.328125 Z M 19.234375 -18.328125 "/></g></g></g></svg>