<svg xmlns="http://www.w3.org/2000/svg" xmlns:xlink="http://www.w3.org/1999/xlink" width="300" zoomAndPan="magnify" viewBox="0 0 224.87999 187.499995" height="250" preserveAspectRatio="xMidYMid meet" version="1.0"><defs><clipPath id="27772a6855"><path d="M 40.992188 22.054688 L 183.863281 22.054688 L 183.863281 164.921875 L 40.992188 164.921875 Z M 40.992188 22.054688 " clip-rule="nonzero"/></clipPath></defs><g clip-path="url(#27772a6855)"><path stroke-linecap="butt" transform="matrix(7.937167, 0, 0, 7.937167, 17.181222, -1.75811)" fill-opacity="1" fill="#000000" fill-rule="nonzero" stroke-linejoin="miter" d="M 6.752059 12.000049 C 7.32787 12.231358 7.876614 12.514835 8.398781 12.850479 C 8.920949 13.186615 9.406698 13.568521 9.856028 13.996196 C 10.305358 14.424364 10.709902 14.890919 11.070646 15.396353 C 11.431389 15.901296 11.740949 16.435767 11.999818 16.999767 C 12.25918 16.435767 12.56874 15.901296 12.929483 15.396353 C 13.290227 14.890919 13.695264 14.424364 14.144594 13.996196 C 14.593923 13.568028 15.079672 13.186123 15.60184 12.850479 C 16.124007 12.514835 16.673243 12.231358 17.249055 12.000049 C 16.673243 11.76874 16.124007 11.485264 15.60184 11.14962 C 15.079672 10.813976 14.593923 10.43207 14.144594 10.003902 C 13.695264 9.575735 13.290227 9.10918 12.929483 8.603745 C 12.56874 8.098803 12.25918 7.563839 11.999818 6.999839 C 11.740949 7.563839 11.431389 8.098803 11.070646 8.603745 C 10.709902 9.108688 10.305358 9.575243 9.856028 10.00341 C 9.406698 10.431578 8.920949 10.813484 8.398781 11.149128 C 7.876614 11.485264 7.32787 11.76874 6.752059 12.000049 Z M 11.999818 3.000163 L 11.249787 3.000163 C 11.249787 3.135012 11.246342 3.26986 11.239944 3.404708 C 11.233054 3.539556 11.223211 3.673912 11.209923 3.808268 C 11.196635 3.942624 11.179902 4.076488 11.159724 4.210352 C 11.140038 4.343724 11.116907 4.476603 11.090331 4.608991 C 11.064248 4.741378 11.034227 4.873274 11.001745 5.004185 C 10.968771 5.135096 10.932845 5.265022 10.893473 5.393965 C 10.854101 5.523399 10.811776 5.651357 10.766007 5.778331 C 10.720729 5.905797 10.672007 6.031295 10.620331 6.1563 C 10.568656 6.280813 10.514028 6.404342 10.456447 6.526394 C 10.398373 6.648447 10.337839 6.769023 10.27386 6.88763 C 10.210373 7.006729 10.143933 7.124352 10.074541 7.240007 C 10.005148 7.355661 9.932803 7.469839 9.857996 7.582049 C 9.782698 7.694258 9.704939 7.804499 9.624719 7.912771 C 9.544007 8.021536 9.461326 8.127839 9.375693 8.232174 C 9.290059 8.33651 9.201473 8.438876 9.110918 8.538782 C 9.020363 8.638688 8.927347 8.736625 8.83187 8.832101 C 8.736394 8.927086 8.638457 9.020593 8.538551 9.111148 C 8.438645 9.201703 8.336279 9.289798 8.231944 9.375431 C 8.127609 9.461065 8.021305 9.544237 7.913033 9.624457 C 7.80476 9.705169 7.694027 9.782929 7.581818 9.857735 C 7.469609 9.933033 7.355923 10.004887 7.240268 10.074279 C 7.124122 10.143672 7.006991 10.210604 6.887891 10.274091 C 6.768792 10.337578 6.648216 10.398604 6.526163 10.456185 C 6.404111 10.513766 6.281074 10.568887 6.156069 10.620562 C 6.031556 10.672238 5.905566 10.72096 5.778593 10.766238 C 5.651619 10.812007 5.523169 10.854332 5.394226 10.893211 C 5.264792 10.932583 5.134865 10.96851 5.003954 11.001484 C 4.873043 11.034458 4.74164 11.063986 4.609252 11.090562 C 4.476865 11.117138 4.343985 11.140269 4.210121 11.159955 C 4.07675 11.179641 3.942886 11.196374 3.80853 11.209662 C 3.674174 11.22295 3.539325 11.233285 3.404477 11.239683 C 3.270121 11.246573 3.134781 11.250018 2.999933 11.250018 L 2.999933 12.750081 C 3.134781 12.750081 3.270121 12.753526 3.404477 12.760416 C 3.539325 12.766814 3.674174 12.777149 3.80853 12.790437 C 3.942886 12.803725 4.07675 12.819966 4.210121 12.840144 C 4.343985 12.859829 4.476865 12.88296 4.609252 12.909536 C 4.74164 12.936112 4.873043 12.965641 5.003954 12.998615 C 5.134865 13.031096 5.264792 13.067515 5.394226 13.106395 C 5.523169 13.145767 5.651619 13.188091 5.778593 13.233861 C 5.905566 13.279138 6.031556 13.327861 6.156069 13.379536 C 6.281074 13.431212 6.404111 13.48584 6.526163 13.543913 C 6.648216 13.601494 6.768792 13.662028 6.887891 13.726008 C 7.006991 13.789494 7.124122 13.855934 7.240268 13.925327 C 7.355923 13.995212 7.469609 14.067065 7.581818 14.142364 C 7.694027 14.21717 7.80476 14.294929 7.913033 14.375149 C 8.021305 14.455861 8.127609 14.539034 8.231944 14.624667 C 8.336279 14.710301 8.438645 14.798395 8.538551 14.88895 C 8.638457 14.979505 8.736394 15.072521 8.83187 15.167997 C 8.927347 15.263474 9.020363 15.361411 9.110918 15.461317 C 9.201473 15.561222 9.290059 15.663589 9.375693 15.767924 C 9.461326 15.872259 9.544007 15.978563 9.624719 16.086835 C 9.704939 16.195599 9.782698 16.30584 9.857996 16.41805 C 9.932803 16.530259 10.005148 16.643945 10.074541 16.760092 C 10.143933 16.875746 10.210373 16.993369 10.27386 17.111976 C 10.337839 17.231076 10.398373 17.351652 10.456447 17.473704 C 10.514028 17.595757 10.568656 17.719285 10.620331 17.843799 C 10.672007 17.968312 10.720729 18.094301 10.766499 18.221275 C 10.811776 18.348741 10.854101 18.476699 10.893473 18.605642 C 10.932845 18.735076 10.968771 18.865003 11.001745 18.995914 C 11.034227 19.126825 11.064248 19.25872 11.090331 19.391108 C 11.116907 19.523495 11.140038 19.656375 11.159724 19.789746 C 11.179902 19.923118 11.196635 20.056982 11.209923 20.191338 C 11.223211 20.325694 11.233054 20.460542 11.239944 20.59539 C 11.246342 20.730239 11.249787 20.865087 11.249787 20.999935 L 12.74985 20.999935 C 12.750342 20.865087 12.753295 20.730239 12.760185 20.59539 C 12.767075 20.460542 12.776918 20.325694 12.790206 20.191338 C 12.803494 20.056982 12.820227 19.923118 12.839913 19.789746 C 12.860091 19.656375 12.883222 19.523495 12.909305 19.391108 C 12.935881 19.25872 12.96541 19.126825 12.998384 18.995914 C 13.031358 18.865003 13.067285 18.735076 13.106656 18.605642 C 13.146028 18.476699 13.188353 18.348741 13.23363 18.221275 C 13.2794 18.094301 13.328122 17.968312 13.379798 17.843799 C 13.431473 17.719285 13.486101 17.595757 13.543682 17.473704 C 13.601756 17.351652 13.66229 17.231076 13.725777 17.111976 C 13.789756 16.993369 13.856196 16.875746 13.925588 16.760092 C 13.994981 16.643945 14.067327 16.530259 14.142133 16.41805 C 14.217431 16.30584 14.29519 16.195599 14.37541 16.086835 C 14.45563 15.978563 14.538803 15.872259 14.624437 15.767924 C 14.71007 15.663589 14.798164 15.561222 14.888719 15.461317 C 14.979766 15.361411 15.072782 15.263474 15.168259 15.167997 C 15.263735 15.072521 15.36118 14.979505 15.461086 14.88895 C 15.561484 14.798395 15.663358 14.710301 15.767693 14.624667 C 15.872028 14.539034 15.978824 14.455861 16.087096 14.375149 C 16.195369 14.294929 16.305609 14.21717 16.417819 14.142364 C 16.530028 14.067065 16.644206 13.995212 16.759861 13.925327 C 16.875515 13.855934 16.993138 13.789494 17.112238 13.726008 C 17.231337 13.662028 17.351913 13.601494 17.473966 13.543913 C 17.595526 13.48584 17.719055 13.431212 17.843568 13.379536 C 17.968573 13.327861 18.094563 13.279138 18.221536 13.233861 C 18.34851 13.188091 18.476468 13.145767 18.605903 13.106395 C 18.734845 13.067515 18.865264 13.031096 18.996175 12.998615 C 19.127086 12.965641 19.258489 12.936112 19.390877 12.909536 C 19.523264 12.88296 19.656144 12.859829 19.790008 12.840144 C 19.923379 12.819966 20.057243 12.803725 20.191599 12.790437 C 20.325955 12.777149 20.460311 12.766814 20.59516 12.760416 C 20.730008 12.753526 20.864856 12.750081 21.000196 12.750081 L 21.000196 11.250018 C 20.864856 11.250018 20.730008 11.246573 20.59516 11.239683 C 20.460311 11.233285 20.325955 11.22295 20.191599 11.209662 C 20.057243 11.196374 19.923379 11.179641 19.790008 11.159955 C 19.656144 11.140269 19.523264 11.117138 19.390877 11.090562 C 19.258489 11.063986 19.127086 11.034458 18.996175 11.001484 C 18.865264 10.96851 18.734845 10.932583 18.605903 10.893211 C 18.476468 10.854332 18.34851 10.812007 18.221536 10.766238 C 18.094563 10.72096 17.968573 10.672238 17.843568 10.620562 C 17.719055 10.568887 17.595526 10.513766 17.473966 10.456185 C 17.351913 10.398604 17.231337 10.337578 17.112238 10.274091 C 16.993138 10.210604 16.875515 10.143672 16.759861 10.074279 C 16.644206 10.004887 16.530028 9.933033 16.417819 9.857735 C 16.305609 9.782929 16.195369 9.705169 16.087096 9.624457 C 15.978824 9.544237 15.872028 9.461065 15.767693 9.375431 C 15.663358 9.289798 15.561484 9.201703 15.461086 9.111148 C 15.36118 9.020593 15.263735 8.927086 15.168259 8.832101 C 15.072782 8.736625 14.979766 8.638688 14.888719 8.538782 C 14.798164 8.438876 14.71007 8.33651 14.624437 8.232174 C 14.538803 8.127839 14.45563 8.021536 14.37541 7.912771 C 14.29519 7.804499 14.217431 7.694258 14.142133 7.582049 C 14.067327 7.469839 13.994981 7.355661 13.925588 7.240007 C 13.856196 7.124352 13.789756 7.006729 13.725777 6.88763 C 13.66229 6.769023 13.601756 6.648447 13.543682 6.526394 C 13.486101 6.404342 13.431473 6.280813 13.379798 6.1563 C 13.328122 6.031295 13.2794 5.905797 13.23363 5.778331 C 13.188353 5.651357 13.146028 5.523399 13.106656 5.393965 C 13.067285 5.265022 13.031358 5.135096 12.998384 5.004185 C 12.96541 4.873274 12.935881 4.741378 12.909305 4.608991 C 12.883222 4.476603 12.860091 4.343724 12.839913 4.210352 C 12.820227 4.076488 12.803494 3.942624 12.790206 3.808268 C 12.776918 3.673912 12.767075 3.539556 12.760185 3.404708 C 12.753295 3.26986 12.750342 3.135012 12.74985 3.000163 Z M 11.999818 3.000163 " stroke="#f24822" stroke-width="0.1" stroke-opacity="1" stroke-miterlimit="4"/></g></svg>