<svg xmlns="http://www.w3.org/2000/svg" xmlns:xlink="http://www.w3.org/1999/xlink" width="350" zoomAndPan="magnify" viewBox="0 0 262.5 149.999998" height="200" preserveAspectRatio="xMidYMid meet" version="1.0"><defs><g/></defs><path fill="#f24822" d="M 71.640625 83.503906 C 67.636719 73.859375 59.621094 67.429688 50.003906 65.019531 C 50.808594 58.589844 55.617188 54.570312 61.226562 52.160156 C 50.808594 50.550781 40.390625 53.765625 33.976562 61 C 28.367188 56.980469 26.765625 50.550781 28.367188 44.925781 C 22.757812 52.964844 19.554688 63.414062 22.757812 73.058594 C 17.148438 76.273438 10.738281 73.859375 5.929688 70.644531 C 9.9375 80.289062 17.949219 86.722656 27.566406 89.132812 C 26.765625 95.5625 21.957031 99.582031 16.347656 101.992188 C 26.765625 103.597656 37.183594 100.382812 43.59375 93.152344 C 49.203125 97.167969 50.808594 103.597656 49.203125 109.226562 C 54.8125 101.1875 58.019531 90.738281 54.8125 81.09375 C 60.421875 77.878906 66.835938 80.289062 71.640625 83.503906 Z M 38.785156 83.105469 C 35.46875 83.105469 32.777344 80.40625 32.777344 77.074219 C 32.777344 73.746094 35.46875 71.046875 38.785156 71.046875 C 42.105469 71.046875 44.796875 73.746094 44.796875 77.074219 C 44.796875 80.40625 42.105469 83.105469 38.785156 83.105469 Z M 38.785156 83.105469 " fill-opacity="1" fill-rule="nonzero"/><g fill="#f24822" fill-opacity="1"><g transform="translate(76.195716, 87.923938)"><g><path d="M 19.234375 -18.328125 L 19.234375 -14.65625 L 4.578125 -14.65625 L 4.578125 -11 L 15.578125 -11 C 16.242188 -11 16.851562 -10.832031 17.40625 -10.5 C 17.96875 -10.175781 18.410156 -9.734375 18.734375 -9.171875 C 19.066406 -8.617188 19.234375 -8.003906 19.234375 -7.328125 L 19.234375 -3.671875 C 19.234375 -2.992188 19.066406 -2.375 18.734375 -1.8125 C 18.410156 -1.257812 17.96875 -0.816406 17.40625 -0.484375 C 16.851562 -0.160156 16.242188 0 15.578125 0 L 0.921875 0 L 0.921875 -3.671875 L 15.578125 -3.671875 L 15.578125 -7.328125 L 4.578125 -7.328125 C 3.910156 -7.328125 3.296875 -7.488281 2.734375 -7.8125 C 2.179688 -8.144531 1.738281 -8.585938 1.40625 -9.140625 C 1.082031 -9.703125 0.921875 -10.320312 0.921875 -11 L 0.921875 -14.65625 C 0.921875 -15.332031 1.082031 -15.945312 1.40625 -16.5 C 1.738281 -17.0625 2.179688 -17.503906 2.734375 -17.828125 C 3.296875 -18.160156 3.910156 -18.328125 4.578125 -18.328125 Z M 19.234375 -18.328125 "/></g></g></g><g fill="#f24822" fill-opacity="1"><g transform="translate(96.347873, 87.923938)"><g><path d="M 19.234375 -18.328125 L 19.234375 -14.65625 L 11.90625 -14.65625 L 11.90625 0 L 8.25 0 L 8.25 -14.65625 L 0.921875 -14.65625 L 0.921875 -18.328125 Z M 19.234375 -18.328125 "/></g></g></g><g fill="#f24822" fill-opacity="1"><g transform="translate(116.50003, 87.923938)"><g><path d="M 4.578125 -18.328125 L 15.578125 -18.328125 C 16.242188 -18.328125 16.851562 -18.160156 17.40625 -17.828125 C 17.96875 -17.503906 18.410156 -17.0625 18.734375 -16.5 C 19.066406 -15.945312 19.234375 -15.332031 19.234375 -14.65625 L 19.234375 0 L 15.578125 0 L 15.578125 -7.328125 L 4.578125 -7.328125 L 4.578125 0 L 0.921875 0 L 0.921875 -14.65625 C 0.921875 -15.332031 1.082031 -15.945312 1.40625 -16.5 C 1.738281 -17.0625 2.179688 -17.503906 2.734375 -17.828125 C 3.296875 -18.160156 3.910156 -18.328125 4.578125 -18.328125 Z M 4.578125 -14.65625 L 4.578125 -11 L 15.578125 -11 L 15.578125 -14.65625 Z M 4.578125 -14.65625 "/></g></g></g><g fill="#f24822" fill-opacity="1"><g transform="translate(136.652187, 87.923938)"><g><path d="M 19.234375 -14.65625 L 19.234375 -11 C 19.234375 -10.320312 19.066406 -9.703125 18.734375 -9.140625 C 18.410156 -8.585938 17.96875 -8.144531 17.40625 -7.8125 C 16.851562 -7.488281 16.242188 -7.328125 15.578125 -7.328125 L 11.90625 -7.328125 L 15.578125 -3.671875 L 19.234375 -3.671875 L 19.234375 0 L 14.84375 0 C 14.320312 0 13.878906 -0.179688 13.515625 -0.546875 L 6.734375 -7.328125 L 4.578125 -7.328125 L 4.578125 0 L 0.921875 0 L 0.921875 -18.328125 L 15.578125 -18.328125 C 16.242188 -18.328125 16.851562 -18.160156 17.40625 -17.828125 C 17.96875 -17.503906 18.410156 -17.0625 18.734375 -16.5 C 19.066406 -15.945312 19.234375 -15.332031 19.234375 -14.65625 Z M 15.578125 -14.65625 L 4.578125 -14.65625 L 4.578125 -11 L 15.578125 -11 Z M 15.578125 -14.65625 "/></g></g></g><g fill="#f24822" fill-opacity="1"><g transform="translate(156.804343, 87.923938)"><g><path d="M 19.234375 -18.328125 L 19.234375 -14.65625 L 4.578125 -14.65625 L 4.578125 -11 L 15.578125 -11 C 16.242188 -11 16.851562 -10.832031 17.40625 -10.5 C 17.96875 -10.175781 18.410156 -9.734375 18.734375 -9.171875 C 19.066406 -8.617188 19.234375 -8.003906 19.234375 -7.328125 L 19.234375 -3.671875 C 19.234375 -2.992188 19.066406 -2.375 18.734375 -1.8125 C 18.410156 -1.257812 17.96875 -0.816406 17.40625 -0.484375 C 16.851562 -0.160156 16.242188 0 15.578125 0 L 0.921875 0 L 0.921875 -3.671875 L 15.578125 -3.671875 L 15.578125 -7.328125 L 4.578125 -7.328125 C 3.910156 -7.328125 3.296875 -7.488281 2.734375 -7.8125 C 2.179688 -8.144531 1.738281 -8.585938 1.40625 -9.140625 C 1.082031 -9.703125 0.921875 -10.320312 0.921875 -11 L 0.921875 -14.65625 C 0.921875 -15.332031 1.082031 -15.945312 1.40625 -16.5 C 1.738281 -17.0625 2.179688 -17.503906 2.734375 -17.828125 C 3.296875 -18.160156 3.910156 -18.328125 4.578125 -18.328125 Z M 19.234375 -18.328125 "/></g></g></g><g fill="#f24822" fill-opacity="1"><g transform="translate(176.9565, 87.923938)"><g><path d="M 15.578125 -11 L 15.578125 -18.328125 L 19.234375 -18.328125 L 19.234375 0 L 15.578125 0 L 15.578125 -7.328125 L 4.578125 -7.328125 L 4.578125 0 L 0.921875 0 L 0.921875 -18.328125 L 4.578125 -18.328125 L 4.578125 -11 Z M 15.578125 -11 "/></g></g></g><g fill="#f24822" fill-opacity="1"><g transform="translate(197.108657, 87.923938)"><g><path d="M 4.578125 -18.328125 L 15.578125 -18.328125 C 16.242188 -18.328125 16.851562 -18.160156 17.40625 -17.828125 C 17.96875 -17.503906 18.410156 -17.0625 18.734375 -16.5 C 19.066406 -15.945312 19.234375 -15.332031 19.234375 -14.65625 L 19.234375 0 L 15.578125 0 L 15.578125 -7.328125 L 4.578125 -7.328125 L 4.578125 0 L 0.921875 0 L 0.921875 -14.65625 C 0.921875 -15.332031 1.082031 -15.945312 1.40625 -16.5 C 1.738281 -17.0625 2.179688 -17.503906 2.734375 -17.828125 C 3.296875 -18.160156 3.910156 -18.328125 4.578125 -18.328125 Z M 4.578125 -14.65625 L 4.578125 -11 L 15.578125 -11 L 15.578125 -14.65625 Z M 4.578125 -14.65625 "/></g></g></g><g fill="#f24822" fill-opacity="1"><g transform="translate(217.260808, 87.923938)"><g><path d="M 15.578125 -18.328125 C 16.242188 -18.328125 16.851562 -18.160156 17.40625 -17.828125 C 17.96875 -17.503906 18.410156 -17.0625 18.734375 -16.5 C 19.066406 -15.945312 19.234375 -15.332031 19.234375 -14.65625 L 19.234375 -11 C 19.234375 -10.320312 19.066406 -9.703125 18.734375 -9.140625 C 18.410156 -8.585938 17.96875 -8.144531 17.40625 -7.8125 C 16.851562 -7.488281 16.242188 -7.328125 15.578125 -7.328125 L 4.578125 -7.328125 L 4.578125 0 L 0.921875 0 L 0.921875 -18.328125 Z M 4.578125 -11 L 15.578125 -11 L 15.578125 -14.65625 L 4.578125 -14.65625 Z M 4.578125 -11 "/></g></g></g><g fill="#f24822" fill-opacity="1"><g transform="translate(237.412971, 87.923938)"><g><path d="M 19.234375 -18.328125 L 19.234375 -14.65625 L 4.578125 -14.65625 L 4.578125 -11 L 19.234375 -11 L 19.234375 -7.328125 L 4.578125 -7.328125 L 4.578125 -3.671875 L 19.234375 -3.671875 L 19.234375 0 L 4.578125 0 C 3.910156 0 3.296875 -0.160156 2.734375 -0.484375 C 2.179688 -0.816406 1.738281 -1.257812 1.40625 -1.8125 C 1.082031 -2.375 0.921875 -2.992188 0.921875 -3.671875 L 0.921875 -14.65625 C 0.921875 -15.332031 1.082031 -15.945312 1.40625 -16.5 C 1.738281 -17.0625 2.179688 -17.503906 2.734375 -17.828125 C 3.296875 -18.160156 3.910156 -18.328125 4.578125 -18.328125 Z M 19.234375 -18.328125 "/></g></g></g></svg>